HIERARCHY
ROOT Hips
{
	OFFSET 0.000000 88.474243 0.000000
	CHANNELS 6 Xposition Yposition Zposition Zrotation Yrotation Xrotation 
	JOINT Hips_Spine
	{
		OFFSET 0.000000 0.000000 0.000000
		CHANNELS 3 Zrotation Yrotation Xrotation
		JOINT Spine
		{
			OFFSET 0.005100 8.711998 -0.691000
			CHANNELS 3 Zrotation Yrotation Xrotation
			JOINT Spine1
			{
				OFFSET -0.009200 8.660301 -1.275000
				CHANNELS 3 Zrotation Yrotation Xrotation
				JOINT Spine2
				{
					OFFSET 0.006300 9.852501 -1.857000
					CHANNELS 3 Zrotation Yrotation Xrotation
					JOINT Spine2_Neck
					{
						OFFSET 0.000000 0.000000 0.000000
						CHANNELS 3 Zrotation Yrotation Xrotation
						JOINT Neck
						{
							OFFSET 0.016300 11.420799 -0.263300
							CHANNELS 3 Zrotation Yrotation Xrotation
							End Site #name: Head
							{
								OFFSET -0.019200 9.262405 2.362500
							}
						}
					}
					JOINT Spine2_LeftShoulder
					{
						OFFSET 0.000000 0.000000 0.000000
						CHANNELS 3 Zrotation Yrotation Xrotation
						JOINT LeftShoulder
						{
							OFFSET 5.616900 6.732201 -0.345700
							CHANNELS 3 Zrotation Yrotation Xrotation
							JOINT LeftArm
							{
								OFFSET 10.664888 -0.183372 -2.440700
								CHANNELS 3 Zrotation Yrotation Xrotation
								JOINT LeftForeArm
								{
									OFFSET 27.459126 0.000000 0.000000
									CHANNELS 3 Zrotation Yrotation Xrotation
									End Site #name: LeftHand
									{
										OFFSET 21.306858 0.000000 0.000000
									}
								}
							}
						}
					}
					JOINT Spine2_RightShoulder
					{
						OFFSET 0.000000 0.000000 0.000000
						CHANNELS 3 Zrotation Yrotation Xrotation
						JOINT RightShoulder
						{
							OFFSET -5.580300 6.737503 -0.344400
							CHANNELS 3 Zrotation Yrotation Xrotation
							JOINT RightArm
							{
								OFFSET -10.679335 -0.188484 -2.383900
								CHANNELS 3 Zrotation Yrotation Xrotation
								JOINT RightForeArm
								{
									OFFSET -27.503529 0.000000 0.000000
									CHANNELS 3 Zrotation Yrotation Xrotation
									End Site #name: RightHand
									{
										OFFSET -21.306808 0.000000 0.000000
									}
								}
							}
						}
					}
				}
			}
		}
	}
	JOINT Hips_LeftUpLeg
	{
		OFFSET 0.000000 0.000000 0.000000
		CHANNELS 3 Zrotation Yrotation Xrotation
		JOINT LeftUpLeg
		{
			OFFSET 6.857700 -6.739601 0.312100
			CHANNELS 3 Zrotation Yrotation Xrotation
			JOINT LeftLeg
			{
				OFFSET -0.367590 -34.731552 -4.572400
				CHANNELS 3 Zrotation Yrotation Xrotation
				End Site #name: LeftFoot
				{
					OFFSET 0.367590 -34.656704 -6.067400
				}
			}
		}
	}
	JOINT Hips_RightUpLeg
	{
		OFFSET 0.000000 0.000000 0.000000
		CHANNELS 3 Zrotation Yrotation Xrotation
		JOINT RightUpLeg
		{
			OFFSET -6.876100 -6.733299 0.301000
			CHANNELS 3 Zrotation Yrotation Xrotation
			JOINT RightLeg
			{
				OFFSET 0.347353 -34.795158 -4.515900
				CHANNELS 3 Zrotation Yrotation Xrotation
				End Site #name: RightFoot
				{
					OFFSET -0.347353 -34.589367 -6.070300
				}
			}
		}
	}
}
MOTION
Frames: 13
Frame Time: 0.041667
-52.465149 87.202469 17.175070 9.937377 64.729025 -21.024660 0.000000 -0.000000 0.000000 -0.161867 8.521238 -29.206712 -0.823855 -31.067556 -9.449681 0.000000 0.000000 0.000000 -7.760194 -14.174523 -5.030651 -76.308108 11.199926 -19.423060 -12.419578 -3.795241 -2.346990 -92.898567 -16.077529 3.209613 -165.255745 51.545244 -127.777040 179.211641 -27.176277 176.213970 -16.566688 -13.939468 9.572866 66.070514 -6.331737 -13.985141 46.509792 43.004633 -131.161188 -179.720348 18.714312 179.281171 -0.000000 -0.000000 0.000000 45.190305 -15.105575 29.531692 66.153413 20.186248 124.847769 -0.000000 0.000000 0.000000 90.439822 16.052510 4.259851 -23.614758 23.035150 -59.358516 
-53.686993 89.925636 17.807249 9.686975 65.011750 -21.239389 0.000000 -0.000000 0.000000 -0.149103 8.412579 -28.752575 -0.666431 -31.656866 -10.069782 0.000000 0.000000 0.000000 -7.883373 -14.464894 -5.233804 -76.528761 11.313448 -19.630155 -12.831739 -3.740371 -2.525754 -92.818966 -16.231751 3.324813 -165.234681 51.681310 -127.653330 179.247003 -26.991027 176.221728 -16.916903 -14.036702 9.982028 67.146970 -7.172434 -15.078263 47.070150 42.911108 -130.662198 -179.671321 19.290086 179.194942 -0.000000 -0.000000 0.000000 45.809061 -15.375250 29.452447 67.334925 19.880899 125.607084 -0.000000 0.000000 0.000000 90.163328 16.453189 3.829312 -23.434439 23.063671 -59.103106 
-54.963436 92.671921 18.468063 9.419355 65.527670 -21.436450 0.000000 -0.000000 0.000000 -0.095591 8.287485 -28.141330 -0.501468 -32.292625 -10.708817 0.000000 0.000000 0.000000 -7.991083 -14.788588 -5.486807 -76.683377 11.273862 -19.812069 -13.261577 -3.671153 -2.666805 -92.674092 -16.372721 3.381599 -165.247454 51.820439 -127.550794 179.269054 -26.785079 176.229490 -17.284592 -14.158855 10.434676 68.359394 -7.979655 -16.043327 47.555680 42.913199 -130.223302 -179.600267 19.812951 179.089784 -0.000000 -0.000000 0.000000 46.479733 -15.758370 29.071781 68.472088 19.516483 126.356959 -0.000000 0.000000 0.000000 89.881745 16.949499 3.153312 -23.210307 23.067506 -58.703618 
-56.296173 95.431129 19.150167 9.140323 66.238615 -21.587432 0.000000 -0.000000 0.000000 -0.057903 8.071788 -27.404831 -0.353790 -32.944666 -11.300828 0.000000 0.000000 0.000000 -8.084417 -15.167458 -5.798368 -76.764297 11.107804 -20.017637 -13.733671 -3.585950 -2.783136 -92.474088 -16.481260 3.381781 -165.319993 51.935483 -127.464792 179.279187 -26.561752 176.242583 -17.655281 -14.313696 10.891083 69.668541 -8.605822 -16.914368 47.983209 43.032385 -129.854045 -179.510261 20.234238 178.975981 -0.000000 -0.000000 0.000000 47.240076 -16.161346 28.341698 69.422640 19.136952 127.017344 -0.000000 0.000000 0.000000 89.750994 17.506977 2.371398 -22.924336 23.078043 -58.166576 
-57.684624 98.196205 19.845797 8.860706 67.102607 -21.698572 0.000000 -0.000000 0.000000 -0.059942 7.791101 -26.587153 -0.215769 -33.622884 -11.840282 0.000000 0.000000 0.000000 -8.170510 -15.578122 -6.150830 -76.772625 10.798606 -20.231133 -14.220902 -3.487285 -2.860163 -92.197973 -16.579314 3.334332 -165.479469 52.082447 -127.425980 179.277914 -26.310896 176.259977 -18.023017 -14.494305 11.340462 71.029581 -8.986311 -17.624084 48.339411 43.262122 -129.569503 -179.401436 20.558055 178.856405 -0.000000 -0.000000 0.000000 48.025498 -16.609679 27.544332 70.156703 18.763239 127.520502 -0.000000 -0.000000 0.000000 89.655489 18.338254 1.228083 -22.520643 23.113197 -57.411205 
-59.116219 100.965790 20.546000 8.571550 68.151976 -21.745533 0.000000 -0.000000 0.000000 -0.075230 7.497644 -25.736209 -0.132071 -34.281375 -12.404485 0.000000 0.000000 0.000000 -8.236682 -16.028122 -6.513348 -76.718073 10.365434 -20.471157 -14.720743 -3.373831 -2.906367 -91.856563 -16.651973 3.227129 -165.704243 52.250441 -127.395786 179.269835 -26.085489 176.279323 -18.395829 -14.691645 11.794823 72.533578 -9.180847 -18.225862 48.627349 43.653534 -129.348307 -179.292399 20.739504 178.731543 -0.000000 -0.000000 0.000000 48.785226 -17.121190 26.585676 70.562945 18.482136 127.888659 -0.000000 -0.000000 0.000000 89.515542 19.415772 -0.142140 -22.001265 23.208283 -56.595147 
-60.577457 103.747566 21.241035 8.277775 69.365371 -21.736720 0.000000 -0.000000 0.000000 -0.124612 7.181957 -24.944428 -0.071716 -34.908722 -12.923454 0.000000 0.000000 0.000000 -8.259773 -16.501397 -6.893021 -76.599753 9.833890 -20.783882 -15.204611 -3.236632 -2.913565 -91.402898 -16.689073 3.042307 -165.942492 52.414385 -127.351244 179.257219 -25.908115 176.307456 -18.736924 -14.870865 12.193070 73.994078 -9.206135 -18.679257 48.823092 44.167899 -129.222404 -179.168533 20.809080 178.607051 -0.000000 -0.000000 0.000000 49.553175 -17.771014 25.377024 70.659752 18.399879 128.049436 -0.000000 -0.000000 0.000000 89.346842 20.470003 -1.264706 -21.445883 23.272337 -56.064588 
-62.058365 106.532166 21.922939 8.013603 70.670087 -21.663573 0.000000 -0.000000 0.000000 -0.213792 6.873812 -24.173606 -0.035868 -35.478476 -13.281183 0.000000 0.000000 0.000000 -8.244298 -16.944095 -7.244581 -76.368477 9.218481 -21.196388 -15.650831 -3.095162 -2.886347 -90.849441 -16.678504 2.774239 -166.217906 52.575580 -127.309208 179.238756 -25.758667 176.343650 -19.053196 -15.018864 12.556810 75.462911 -9.090855 -19.010557 48.957875 44.753874 -129.197158 -179.035054 20.801982 178.482367 -0.000000 -0.000000 0.000000 50.258675 -18.433516 24.120454 70.394171 18.414481 128.017137 -0.000000 -0.000000 0.000000 89.195346 21.660149 -2.202531 -20.933483 23.303903 -55.868876 
-63.546570 109.321930 22.578547 7.804841 72.070699 -21.471169 0.000000 -0.000000 0.000000 -0.269104 6.627750 -23.641186 -0.016652 -35.967498 -13.473223 0.000000 0.000000 0.000000 -8.196799 -17.340059 -7.553726 -76.027870 8.524623 -21.687612 -16.015369 -2.951451 -2.796637 -90.184671 -16.629326 2.423947 -166.477307 52.699867 -127.249219 179.196537 -25.675995 176.386367 -19.280661 -15.114757 12.847230 76.804444 -8.799756 -19.149696 49.013329 45.373732 -129.262383 -178.898810 20.936737 178.351169 -0.000000 -0.000000 0.000000 50.814098 -19.034691 22.734798 69.882358 18.549569 127.771885 -0.000000 -0.000000 0.000000 89.218375 22.831649 -2.592225 -20.379186 23.352407 -56.010861 
-65.038788 112.118111 23.213837 7.685758 73.490864 -21.076349 0.000000 -0.000000 0.000000 -0.109012 6.524488 -23.350730 0.003870 -36.349356 -13.515602 0.000000 0.000000 0.000000 -8.122993 -17.703587 -7.837058 -75.546716 7.752406 -22.204815 -16.299668 -2.821260 -2.609046 -89.419900 -16.537811 2.038859 -166.727093 52.800882 -127.119558 179.152111 -25.702572 176.424262 -19.434221 -15.166020 13.054379 78.028018 -8.392706 -19.153603 49.064112 45.899464 -129.401617 -178.786784 21.316153 178.198211 -0.000000 -0.000000 0.000000 51.128947 -19.629920 21.541398 69.156554 18.808603 127.246318 -0.000000 -0.000000 0.000000 89.244965 24.160633 -2.966671 -19.929842 23.425837 -56.221013 
-66.525360 114.932587 23.836773 7.585138 75.015803 -20.564044 0.000000 -0.000000 0.000000 0.136688 6.478448 -23.329072 0.019825 -36.628708 -13.429254 0.000000 0.000000 0.000000 -8.013019 -18.020039 -8.100414 -74.948080 6.927710 -22.792474 -16.475858 -2.685597 -2.293544 -88.565773 -16.403436 1.619280 -166.948496 52.910952 -126.946197 179.104852 -25.843661 176.460056 -19.494981 -15.151911 13.212608 79.219192 -7.922801 -19.052208 49.056973 46.406884 -129.600587 -178.700505 21.799625 178.036578 -0.000000 -0.000000 0.000000 51.483439 -20.131106 20.407188 68.206365 19.134488 126.512199 -0.000000 -0.000000 0.000000 89.349188 25.797793 -3.491052 -19.682326 23.520597 -56.330201 
-67.999649 117.780769 24.452299 7.544429 76.668304 -19.931263 0.000000 -0.000000 0.000000 0.483898 6.485875 -23.354590 0.014680 -36.759303 -13.194277 0.000000 0.000000 0.000000 -7.907182 -18.236824 -8.344034 -74.417894 6.116793 -23.242663 -16.569144 -2.563530 -1.889905 -87.578165 -16.214882 1.156409 -167.106375 53.036432 -126.677865 179.056972 -26.145885 176.492675 -19.473708 -15.055670 13.317046 80.342108 -7.352988 -18.834707 49.085356 46.858729 -129.774922 -178.631612 22.398444 177.864664 -0.000000 -0.000000 0.000000 52.111026 -20.270813 19.292051 67.028252 19.519856 125.529537 -0.000000 -0.000000 0.000000 89.559553 27.860778 -4.311016 -19.533920 23.773092 -56.129261 
-69.454063 120.668015 25.064342 7.573950 78.422681 -19.190838 0.000000 -0.000000 0.000000 0.648685 6.531220 -23.450798 0.072200 -36.806152 -13.038958 0.000000 0.000000 0.000000 -7.835446 -18.417431 -8.570281 -74.057950 5.307290 -23.614035 -16.604912 -2.432889 -1.401172 -86.522681 -15.976858 0.691063 -167.248657 53.187162 -126.365656 179.017885 -26.582344 176.526014 -19.408260 -14.896177 13.394628 81.490032 -6.817831 -18.645641 49.142089 47.317449 -129.873904 -178.576231 22.939033 177.677808 -0.000000 -0.000000 0.000000 52.891463 -20.270380 18.094951 65.650241 19.931897 124.375935 -0.000000 -0.000000 0.000000 90.032905 30.285603 -5.253350 -19.395715 24.148519 -55.716658 
